<?xml version="1.0" encoding="utf-8"?>
<!-- Generator: Adobe Illustrator 24.1.1, SVG Export Plug-In . SVG Version: 6.00 Build 0)  -->
<svg version="1.1" id="Calque_1" xmlns="http://www.w3.org/2000/svg" xmlns:xlink="http://www.w3.org/1999/xlink" x="0px" y="0px"
	 viewBox="0 0 223.3 113.5" style="enable-background:new 0 0 223.3 113.5;" xml:space="preserve">
<style type="text/css">
	.st0{fill:#BD8A47;}
	.st1{fill:none;stroke:#6E4C23;stroke-width:0.2835;stroke-miterlimit:10;}
	.st2{fill:#E52521;}
	.st3{fill:#6E4C23;}
</style>
<g>
	<path class="st0" d="M195,28.4h-7.5V14.2c0-7.8-6.3-14.2-14.2-14.2s-14.2,6.3-14.2,14.2v14.2H28.3C12.7,28.4,0,41.1,0,56.8
		s12.7,28.3,28.3,28.3h130.8v14.2c0,7.8,6.3,14.2,14.2,14.2s14.2-6.3,14.2-14.2V85.1h7.5c15.7,0,28.3-12.7,28.3-28.3
		S210.7,28.4,195,28.4z M28.3,63.4c-3.7,0-6.7-3-6.7-6.7s3-6.7,6.7-6.7s6.7,3,6.7,6.7S32,63.4,28.3,63.4z M173.3,103.6
		c-2.3,0-4.3-1.9-4.3-4.3c0-2.3,1.9-4.3,4.3-4.3c2.3,0,4.3,1.9,4.3,4.3S175.7,103.6,173.3,103.6z M173.3,18.4
		c-2.3,0-4.3-1.9-4.3-4.3s1.9-4.3,4.3-4.3c2.3,0,4.3,1.9,4.3,4.3S175.7,18.4,173.3,18.4z M195,62.4c-3.1,0-5.7-2.5-5.7-5.7
		s2.5-5.7,5.7-5.7c3.1,0,5.7,2.5,5.7,5.7S198.1,62.4,195,62.4z"/>
	<line class="st1" x1="176.2" y1="19.9" x2="191.8" y2="50.4"/>
	<line class="st1" x1="176" y1="94" x2="191.7" y2="63.2"/>
	<polygon class="st2" points="56.6,57.5 65.5,57.5 78.1,64.2 78.1,49.3 65.5,56.1 56.6,56.1 	"/>
	<g>
		<path class="st2" d="M86.4,60l-1,3.4h-3.1L86.4,50h4l4.1,13.4h-3.3l-1-3.4H86.4z M89.8,57.8L89,54.9c-0.2-0.8-0.5-1.8-0.7-2.6l0,0
			c-0.2,0.8-0.4,1.8-0.6,2.6l-0.8,2.8L89.8,57.8L89.8,57.8z"/>
	</g>
	<polygon class="st3" points="56.6,57.5 65.5,57.5 78.1,64.2 78.1,49.3 65.5,56.1 56.6,56.1 	"/>
	<g>
		<path class="st3" d="M86.4,60l-1,3.4h-3.1L86.4,50h4l4.1,13.4h-3.3l-1-3.4H86.4z M89.8,57.8L89,54.9c-0.2-0.8-0.5-1.8-0.7-2.6l0,0
			c-0.2,0.8-0.4,1.8-0.6,2.6l-0.8,2.8L89.8,57.8L89.8,57.8z"/>
	</g>
</g>
</svg>
