<?xml version="1.0" encoding="utf-8"?>
<!-- Generator: Adobe Illustrator 24.1.1, SVG Export Plug-In . SVG Version: 6.00 Build 0)  -->
<svg version="1.1" id="Calque_1" xmlns="http://www.w3.org/2000/svg" xmlns:xlink="http://www.w3.org/1999/xlink" x="0px" y="0px"
	 viewBox="0 0 157.3 56.7" style="enable-background:new 0 0 157.3 56.7;" xml:space="preserve">
<style type="text/css">
	.st0{opacity:0.2;}
	.st1{fill:#BD8A47;}
	.st2{fill:#C69152;}
	.st3{fill:none;stroke:#6E4C23;stroke-width:1.4173;stroke-miterlimit:10;}
	.st4{fill:#6E4C23;}
	.st5{fill:#848484;}
</style>
<path class="st0" d="M29.3,56.7C13.1,56.7,0,44,0,28.3C0,12.7,13.1,0,29.3,0H128c16.2,0,29.3,12.7,29.3,28.3
	c0,15.7-13.2,28.4-29.4,28.4H29.3z"/>
<path class="st1" d="M154.9,28.3c0-15.7-12.7-28.3-28.3-28.3H30.7C15.1,0,2.4,12.7,2.4,28.3c0,15.7,12.7,28.4,28.3,28.4h95.8
	C142.2,56.7,154.9,44,154.9,28.3z"/>
<g>
	<g>
		<path class="st2" d="M154.9,28.3c0-15.7-12.7-28.3-28.3-28.3H30.7C15.1,0,2.4,12.7,2.4,28.3c0,15.7,12.7,28.4,28.3,28.4h95.8
			C142.2,56.7,154.9,44,154.9,28.3z M24.1,28.3c0-3.7,3-6.7,6.7-6.7s6.7,3,6.7,6.7s-3,6.7-6.7,6.7S24.1,32,24.1,28.3z M119.9,28.3
			c0-3.7,3-6.7,6.7-6.7s6.7,3,6.7,6.7s-3,6.7-6.7,6.7S119.9,32,119.9,28.3z"/>
		<g>
			<line class="st3" x1="126.5" y1="56.7" x2="126.5" y2="51"/>
			<line class="st3" x1="137.4" y1="54.5" x2="135.2" y2="49.3"/>
			<line class="st3" x1="146.6" y1="48.4" x2="142.6" y2="44.4"/>
			<line class="st3" x1="152.7" y1="39.2" x2="147.5" y2="37"/>
			<line class="st3" x1="154.9" y1="28.3" x2="149.2" y2="28.3"/>
			<line class="st3" x1="152.7" y1="17.5" x2="147.5" y2="19.7"/>
			<line class="st3" x1="146.6" y1="8.3" x2="142.6" y2="12.3"/>
			<line class="st3" x1="137.4" y1="2.2" x2="135.2" y2="7.4"/>
			<line class="st3" x1="126.5" y1="0" x2="126.5" y2="5.7"/>
		</g>
		<g>
			<line class="st3" x1="30.7" y1="0" x2="30.7" y2="5.7"/>
			<line class="st3" x1="19.9" y1="2.2" x2="22.1" y2="7.4"/>
			<line class="st3" x1="10.7" y1="8.3" x2="14.7" y2="12.3"/>
			<line class="st3" x1="4.6" y1="17.5" x2="9.8" y2="19.7"/>
			<line class="st3" x1="2.4" y1="28.3" x2="8.1" y2="28.3"/>
			<line class="st3" x1="4.6" y1="39.2" x2="9.8" y2="37"/>
			<line class="st3" x1="10.7" y1="48.4" x2="14.7" y2="44.4"/>
			<line class="st3" x1="19.9" y1="54.5" x2="22.1" y2="49.3"/>
			<line class="st3" x1="30.7" y1="56.7" x2="30.7" y2="51"/>
		</g>
		<g>
			<polygon class="st4" points="121.6,5.3 115.2,2.1 115.4,5 85.6,6.7 85.7,8.2 115.4,6.4 115.6,9.3 			"/>
			<path class="st4" d="M75.6,6.1V4.5c1.4-0.4,2.3-0.9,2.7-1.6h1.4v6.7h2.2V11h-6.5V9.5h2.4V4.9C76.9,5.5,76.1,5.9,75.6,6.1z"/>
			<path class="st4" d="M77.4,52.4c0.2,0.6,0.5,0.8,1.1,0.8c0.4,0,0.7-0.2,0.9-0.5s0.4-1,0.4-2.1c-0.5,0.6-1.1,0.8-1.8,0.8
				c-0.7,0-1.3-0.2-1.8-0.7s-0.7-1-0.7-1.8s0.3-1.4,0.8-1.9s1.2-0.7,2.1-0.7c0.6,0,1.2,0.1,1.7,0.4s0.8,0.8,1.1,1.4s0.4,1.4,0.4,2.2
				c0,1.2-0.3,2.2-0.8,3s-1.4,1.2-2.5,1.2c-1.4,0-2.3-0.6-2.6-1.9L77.4,52.4z M78.6,47.7c-0.3,0-0.6,0.1-0.9,0.4s-0.3,0.5-0.3,0.8
				c0,0.3,0.1,0.6,0.3,0.8s0.5,0.4,0.9,0.4s0.6-0.1,0.9-0.4s0.3-0.5,0.3-0.8s-0.1-0.6-0.3-0.8S78.9,47.7,78.6,47.7z"/>
			<polygon class="st4" points="35.6,51.4 42.1,54.6 41.9,51.7 71.7,49.9 71.6,48.5 41.8,50.3 41.7,47.4 			"/>
			<polygon class="st4" points="35.6,5.3 42.1,2.1 41.9,5 71.7,6.7 71.6,8.2 41.8,6.4 41.7,9.3 			"/>
			<polygon class="st4" points="121.6,51.4 115.2,54.6 115.4,51.7 85.6,49.9 85.7,48.5 115.4,50.3 115.6,47.4 			"/>
		</g>
	</g>
	<g>
		<g>
			<g>
				<g>
					<g>
						<circle class="st5" cx="31.1" cy="28.5" r="12.8"/>
					</g>
				</g>
			</g>
		</g>
	</g>
	<g>
		<g>
			<g>
				<g>
					<g>
						<circle class="st5" cx="126.6" cy="28.1" r="12.8"/>
					</g>
				</g>
			</g>
		</g>
	</g>
</g>
<path class="st4" d="M75.4,20.9c0-0.6-0.4-1-1-1c-0.6,0-1,0.4-1,1l0,10c0,0.4-0.5,0.5-0.7,0.2l-3.1-4.8c-0.2-0.4-0.7-0.5-1.1-0.3
	c-0.5,0.3-0.5,0.9-0.2,1.3l4,7.8c0.9,1.7,2.3,3.6,4.4,3.6h3.1c1.8,0,3.4-3.3,3.4-4.9c0.3-3,0-7.9,0-11.1c0-0.5-0.4-0.8-0.9-0.9
	c-0.5,0-0.9,0.3-1,0.9v5.5c0,0.5-0.7,0.5-0.7,0v-7.5c0-0.6-0.4-0.9-1-0.9c-0.6,0-1,0.4-1,1v7.5c0,0.5-0.7,0.5-0.7,0v-9.3
	c0-0.6-0.4-0.9-1-0.9c-0.6,0-1,0.4-1,1c0,3.1,0,6.2,0,9.3c0,0.5-0.7,0.5-0.7,0V20.9z"/>
</svg>
