<?xml version="1.0" encoding="utf-8"?>
<!-- Generator: Adobe Illustrator 24.1.1, SVG Export Plug-In . SVG Version: 6.00 Build 0)  -->
<svg version="1.1" id="Calque_1" xmlns="http://www.w3.org/2000/svg" xmlns:xlink="http://www.w3.org/1999/xlink" x="0px" y="0px"
	 viewBox="0 0 226.2 113.4" style="enable-background:new 0 0 226.2 113.4;" xml:space="preserve">
<style type="text/css">
	.st0{fill:#BD8A47;}
	.st1{fill:#6E4C23;}
</style>
<g>
	<path class="st0" d="M197.8,28.3l-92.1,0C96,11.4,77.7,0,56.7,0C25.4,0,0,25.4,0,56.7s25.4,56.7,56.7,56.7
		c21,0,39.3-11.4,49.1-28.3l92.1,0c15.7,0,28.3-12.7,28.3-28.3C226.2,41,213.5,28.3,197.8,28.3z M85,85l-56.7,0l0-56.7l56.7,0L85,85
		z M197.8,63.4c-3.7,0-6.7-3-6.7-6.7s3-6.7,6.7-6.7c3.7,0,6.7,3,6.7,6.7S201.5,63.4,197.8,63.4z"/>
	<polygon class="st1" points="169.4,56 160.6,56 147.9,49.3 147.9,64.1 160.6,57.4 169.4,57.4 	"/>
	<path class="st1" d="M130.9,50.2c0.8-0.2,2.4-0.3,3.9-0.3c1.8,0,3,0.2,3.9,0.8c0.9,0.5,1.6,1.4,1.6,2.6c0,1.2-0.7,2.3-2.2,2.9v0
		c1.5,0.4,2.7,1.6,2.7,3.3c0,1.2-0.6,2.2-1.4,2.8c-1,0.8-2.6,1.2-5.3,1.2c-1.5,0-2.6-0.1-3.3-0.2L130.9,50.2z M133.9,55.3h1
		c1.6,0,2.4-0.7,2.4-1.6c0-1-0.8-1.5-2.1-1.5c-0.7,0-1,0-1.3,0.1V55.3z M133.9,61.2c0.3,0,0.7,0,1.2,0c1.4,0,2.6-0.5,2.6-1.9
		c0-1.3-1.2-1.9-2.7-1.9l-1,0V61.2z"/>
</g>
</svg>
