<?xml version="1.0" encoding="utf-8"?>
<!-- Generator: Adobe Illustrator 24.1.1, SVG Export Plug-In . SVG Version: 6.00 Build 0)  -->
<svg version="1.1" id="Calque_1" xmlns="http://www.w3.org/2000/svg" xmlns:xlink="http://www.w3.org/1999/xlink" x="0px" y="0px"
	 viewBox="0 0 226.2 113.4" style="enable-background:new 0 0 226.2 113.4;" xml:space="preserve">
<style type="text/css">
	.st0{fill:#BD8A47;}
	.st1{fill:#6E4C23;}
	.st2{fill:#848484;}
</style>
<g>
	<path class="st0" d="M197.8,28.3h-92.1C96,11.4,77.7,0,56.7,0C25.4,0,0,25.4,0,56.7s25.4,56.7,56.7,56.7c21,0,39.3-11.4,49.1-28.3
		h92.1c15.7,0,28.3-12.7,28.3-28.3C226.2,41,213.5,28.3,197.8,28.3z M85,85H28.3V28.3H85V85z M197.8,63.4c-3.7,0-6.7-3-6.7-6.7
		s3-6.7,6.7-6.7s6.7,3,6.7,6.7S201.5,63.4,197.8,63.4z"/>
	<polygon class="st1" points="169.4,56 160.6,56 147.9,49.3 147.9,64.1 160.6,57.4 169.4,57.4 	"/>
	<path class="st1" d="M130.9,50.2c0.8-0.2,2.4-0.3,3.9-0.3c1.8,0,3,0.2,3.9,0.8c0.9,0.5,1.6,1.4,1.6,2.6c0,1.2-0.7,2.3-2.2,2.9l0,0
		c1.5,0.4,2.7,1.6,2.7,3.3c0,1.2-0.6,2.2-1.4,2.8c-1,0.8-2.6,1.2-5.3,1.2c-1.5,0-2.6-0.1-3.3-0.2L130.9,50.2z M133.9,55.3h1
		c1.6,0,2.4-0.7,2.4-1.6c0-1-0.8-1.5-2.1-1.5c-0.7,0-1,0-1.3,0.1L133.9,55.3L133.9,55.3z M133.9,61.2c0.3,0,0.7,0,1.2,0
		c1.4,0,2.6-0.5,2.6-1.9c0-1.3-1.2-1.9-2.7-1.9h-1v3.8H133.9z"/>
</g>
<circle class="st2" cx="197.8" cy="56.7" r="6.7"/>
</svg>
