<?xml version="1.0" encoding="utf-8"?>
<!-- Generator: Adobe Illustrator 24.1.1, SVG Export Plug-In . SVG Version: 6.00 Build 0)  -->
<svg version="1.1" id="Calque_1" xmlns="http://www.w3.org/2000/svg" xmlns:xlink="http://www.w3.org/1999/xlink" x="0px" y="0px"
	 viewBox="0 0 101.4 109.4" style="enable-background:new 0 0 101.4 109.4;" xml:space="preserve">
<style type="text/css">
	.st0{fill-rule:evenodd;clip-rule:evenodd;fill:#FFEEDA;}
	.st1{fill:#FFEEDA;}
</style>
<g>
	<g>
		<circle class="st0" cx="63.2" cy="32.4" r="9.2"/>
	</g>
	<g>
		<path class="st1" d="M46.8,18.5c-4,1.9-7.4,3.6-9.7,5.4c-0.6,0.5-1.1,0.9-1.6,1.4s-0.7,0.8-1.1,1.3c-0.6,0.9-1,1.8-1.2,2.6
			c-0.1,0.4-0.1,0.7-0.1,1s0,0.4,0,0.6v0.1c0,0,0,0,0,0.1s0.1,0.1,0.1,0.2s0.2,0.2,0.3,0.4c0.1,0.1,0.3,0.3,0.5,0.5
			c0.8,0.8,2.1,1.8,3.9,3.1c1.7,1.2,3.8,2.6,6.2,4.6l0.9,0.8c0.3,0.3,0.6,0.6,0.9,0.9l0.9,0.9l0.9,1.1c0.3,0.4,0.6,0.7,0.9,1.2
			c0.3,0.4,0.6,0.9,0.8,1.4c0.6,0.9,1,1.9,1.4,3c0.4,1,0.7,2.1,0.9,3.3c0.2,1.1,0.3,2.3,0.3,3.4c0,2.3-0.5,4.6-1.3,6.6
			c-0.8,2-1.8,3.7-2.9,5.2c-1.1,1.5-2.4,2.8-3.7,3.9s-2.7,2.1-4.1,2.9c-1.4,0.8-3,1.6-4.3,2.1c-2.7,1-5.2,1.7-7.4,2.2
			s-4.1,1-5.7,1.5c-0.8,0.3-1.6,0.6-2,0.8c-0.5,0.3-1.1,0.6-1.6,0.9c-1,0.7-1.7,1.5-2,2c-0.2,0.3-0.2,0.4-0.3,0.5
			c0,0.1-0.1,0.1-0.1,0.2c-0.1,0.2,0.2,0.8,1.1,1.7c0.9,0.9,2.2,1.9,3.8,2.7c0.8,0.4,1.8,0.9,2.6,1.3c0.9,0.4,1.7,0.9,2.7,1.3
			c7.3,3.2,15.3,5,23.6,5.3l3.1,0.1c0.5,0,1,0,1.5,0l1.5-0.1l3.1-0.2l3.1-0.4c2.1-0.2,4.1-0.7,6.2-1c1-0.2,2-0.5,3-0.8s2-0.5,3-0.8
			c8-2.5,15.7-6.5,22.5-11.8l0,0c1.1-0.8,2.7-0.6,3.5,0.5c0.7,1,0.7,2.3-0.1,3.2c-6.2,7-14,12.6-22.6,16.7c-8.7,4-18.1,6.3-27.8,7
			c-1.2,0.1-2.4,0.1-3.6,0.1c-1.2,0-2.4,0.1-3.7,0l-3.7-0.2c-0.6,0-1.2-0.1-1.8-0.1l-1.8-0.2l-3.7-0.5c-1.2-0.2-2.4-0.5-3.6-0.8
			c-2.4-0.5-4.8-1.3-7.2-2c-1.2-0.3-2.3-0.9-3.5-1.3c-1.2-0.5-2.3-0.9-3.5-1.4c-2.4-1.1-4.9-2.5-7.4-4.6c-1.2-1-2.5-2.3-3.6-3.8
			s-2.1-3.4-2.7-5.4s-0.8-4.3-0.6-6.4c0.2-2.2,0.8-4.2,1.6-5.9c1.6-3.5,4-6.1,6.5-8.2c1.3-1,2.6-2,4.1-2.8s2.8-1.4,4.1-1.9
			c2.6-1,5-1.7,7.1-2.4c2.1-0.6,3.9-1.2,5.3-1.9c0.8-0.3,1.2-0.6,1.7-0.9c0.5-0.3,0.9-0.7,1.3-1c0.8-0.7,1.2-1.5,1.2-1.7
			s-0.1,0.3-0.1,0.2l0,0c0,0,0,0,0-0.1c0,0-0.1-0.1-0.2-0.2c-0.1-0.1-0.1-0.1-0.1-0.2l-0.3-0.3L31.9,55l-0.4-0.3
			c-1.1-0.9-2.7-2-4.7-3.3s-4.3-2.9-6.7-5.2c-0.6-0.6-1.2-1.2-1.8-1.9c-0.6-0.8-1.2-1.4-1.7-2.3c-0.5-0.9-1.1-1.7-1.5-2.7
			c-0.2-0.5-0.4-1-0.6-1.5c-0.2-0.5-0.3-1-0.5-1.5c-0.6-2-0.8-4.1-0.8-6c0-2,0.3-3.8,0.7-5.6c0.9-3.5,2.4-6.7,4.4-9.5
			c1-1.4,2.2-2.8,3.3-3.8c1.1-1.1,2.3-2.1,3.5-3c4.8-3.6,9.6-5.6,13.7-7.4c4.9-2.2,10.7,0.1,12.8,5C53.7,10.7,51.6,16.3,46.8,18.5
			L46.8,18.5z"/>
	</g>
	<g>
		<path class="st1" d="M55.4,71.9C60.3,70,65,67.4,69.1,64c4.1-3.5,7.7-7.6,10.3-12.4c2.6-4.8,4.4-10.3,5.1-16.2s0.3-12.1-1.1-18.5
			v-0.1c-0.3-1.4,0.5-2.8,1.9-3.1c1-0.2,1.9,0.1,2.5,0.8c4.7,5.6,7.7,12.7,9,20.3c1.3,7.5,0.7,15.6-1.8,23.2s-7,14.6-12.8,20.3
			c-5.8,5.6-13,10-20.9,12.2c-5.2,1.4-10.5-1.7-12-6.8c-1.3-4.8,1.3-9.8,5.8-11.6L55.4,71.9z"/>
	</g>
</g>
<path class="st0" d="M63.2,23.3c-5.1,0-9.2,4.1-9.2,9.2c0.4,12.2,17.9,12.2,18.4,0C72.4,27.4,68.3,23.3,63.2,23.3z"/>
</svg>
