<?xml version="1.0" encoding="utf-8"?>
<!-- Generator: Adobe Illustrator 24.1.1, SVG Export Plug-In . SVG Version: 6.00 Build 0)  -->
<svg version="1.1" id="Calque_1" xmlns="http://www.w3.org/2000/svg" xmlns:xlink="http://www.w3.org/1999/xlink" x="0px" y="0px"
	 viewBox="0 0 101.8 108.1" style="enable-background:new 0 0 101.8 108.1;" xml:space="preserve">
<style type="text/css">
	.st0{fill:#FFEEDA;}
	.st1{fill-rule:evenodd;clip-rule:evenodd;fill:#FFEEDA;}
</style>
<g>
	<path class="st0" d="M26.6,109.7c-4.4-1.4-8.4-4-11.4-7.2s-5.1-6.8-6.6-10.7c-1.4-3.8-2.1-7.9-2-12c0-3.9,0.8-7.7,2-11.2
		c2.3-7,6.4-12.8,11-17.5s9.7-8.4,15-11.5c1.2-0.7,2.8-0.3,3.5,0.9c0.5,0.8,0.5,1.8,0,2.6l0,0c-3,5.3-6.2,10.3-8.6,15.2
		c-1.2,2.5-2.2,4.9-3,7.3c-0.8,2.4-1.3,4.8-1.6,7C24.6,74.9,24.7,77,25,79c0.3,1.9,0.9,3.7,1.7,5.4c0.8,1.6,1.8,3.2,3,4.2
		c1.1,1.2,2.2,1.9,3.4,2.5l1.2,0.7c4.7,2.6,6.3,8.6,3.6,13.2C35.6,109.2,30.9,111,26.6,109.7z"/>
</g>
<g>
	<path class="st0" d="M41.3,69.6c7.7-2.7,15-5.1,21.3-8.5C69,57.9,74.3,53.8,78,48.7s5.6-10.8,5.2-16.7c-0.2-2.9-1-5.5-2.2-7.7
		c-1.2-2-3-3.8-5.2-4.9c-2.2-1-4.4-1.4-6.3-0.9c-0.9,0.2-2.2,0.7-3.7,1.7c-1.5,0.9-3.2,2.1-5.4,3.3c-1.1,0.6-2.2,1.2-3.5,1.8
		c-1.3,0.6-2.7,1-4.2,1.4c-3,0.7-6.3,0.7-9.1,0C40.8,26,38.5,25,36.4,24c-2-1-3.7-1.9-5.3-2.7c-0.8-0.4-1.6-0.7-2.3-1
		c-0.7-0.3-1.4-0.5-2.2-0.6c-1.5-0.3-3-0.4-4.6-0.4c-3.1,0.2-6.1,1.3-8.6,3.2c-5.1,4-8.2,11.5-7.3,18.7v0.1c0.2,1.4-0.8,2.6-2.2,2.8
		c-1.2,0.1-2.3-0.6-2.7-1.7C0.6,40.3,0.1,38,0,35.7s0.1-4.7,0.6-7c1-4.6,3.1-9.1,6.6-12.8s8.2-6.3,13.3-7.3C23,8.2,25.6,8,28.2,8.3
		c1.3,0.1,2.6,0.3,3.8,0.6c1.2,0.3,2.4,0.6,3.5,1c4.4,1.5,8,3.2,10.5,3.4c1.2,0.1,2.1,0,3.1-0.4c0.5-0.2,1-0.4,1.5-0.7
		c0.6-0.3,1.2-0.7,1.8-1.2c1.4-1,2.9-2.2,4.8-3.6c1.9-1.4,4.3-2.9,7.3-3.9c2.9-1,6.1-1.5,9.1-1.3c3,0.1,6,0.8,8.7,1.9
		c5.4,2.2,10.1,5.9,13.4,10.8c3.2,4.7,5.1,10.1,5.7,15.4c0.7,5.3,0.3,10.6-1.1,15.8c-1.3,5.1-3.7,9.8-6.5,14
		c-2.9,4.2-6.3,7.9-10.1,11C80,74,76,76.6,71.9,78.8c-8.3,4.3-16.7,7-24.5,9.4c-5.2,1.5-10.6-1.4-12.1-6.5
		C33.7,76.6,36.5,71.3,41.3,69.6z"/>
</g>
<path class="st1" d="M58.7,35.8c-5.1,0-9.2,4.1-9.2,9.2c0.4,12.2,17.9,12.2,18.4,0C67.9,39.9,63.8,35.8,58.7,35.8z"/>
</svg>
