<?xml version="1.0" encoding="utf-8"?>
<!-- Generator: Adobe Illustrator 24.1.1, SVG Export Plug-In . SVG Version: 6.00 Build 0)  -->
<svg version="1.1" id="Calque_1" xmlns="http://www.w3.org/2000/svg" xmlns:xlink="http://www.w3.org/1999/xlink" x="0px" y="0px"
	 viewBox="0 0 116.5 105.6" style="enable-background:new 0 0 116.5 105.6;" xml:space="preserve">
<style type="text/css">
	.st0{fill:#FFEEDA;}
	.st1{fill-rule:evenodd;clip-rule:evenodd;fill:#FFEEDA;}
</style>
<g>
	<path class="st0" d="M83.6,2.8c4.5,4.4,7.3,10.1,8.5,16s0.8,12.1-1.2,17.8c-2.1,5.7-5.7,10.4-10.1,13.8c-4.4,3.4-9.7,5.4-14.9,5.5
		c-1.4,0-2.6-1.1-2.7-2.6c0-0.8,0.3-1.5,0.9-2l0.1-0.1c3.3-2.8,5.7-5.9,7.4-9.1c1.7-3.2,2.6-6.5,2.8-9.6c0.2-3-0.3-6.1-1.3-8.9
		s-2.4-5.3-4-7.6l-0.4-0.5C65.8,11.1,66.8,5,71.1,1.8C75-1,80.3-0.5,83.6,2.8z"/>
</g>
<g>
	<path class="st0" d="M111.9,11.4c3.4,6.7,4.9,14.6,4.6,22.4c-0.3,7.9-2.5,15.8-6.5,23.1c-4,7.2-9.8,13.5-16.6,18.1
		c-6.8,4.7-14.8,8-23.2,8.9c-5.3,0.6-10.2-3.2-10.8-8.6c-0.6-5,2.8-9.6,7.6-10.6l0.2-0.1c5.4-1.2,10.8-3.1,15.7-6
		c4.9-2.9,9.4-6.6,13-11.1s6.5-9.9,8.5-15.8c1.9-5.9,2.9-12.4,2.7-19.2v-0.1c0-1.4,1.1-2.6,2.5-2.6C110.6,10,111.4,10.6,111.9,11.4z
		"/>
</g>
<g>
	<path class="st0" d="M5.6,87c4.3-2.1,8.4-4.1,12-6.3c3.7-2.2,6.8-4.7,8.9-7.2c1-1.2,1.7-2.4,2.2-3.6c0.5-1.1,0.7-2.2,0.6-3.5
		c0-0.3-0.1-0.6-0.1-0.9c-0.1-0.3-0.1-0.6-0.2-0.9c-0.1-0.7-0.4-1.4-0.8-2.2c-0.7-1.6-1.9-3.7-3.2-6c-0.7-1.2-1.4-2.5-2-4
		c-0.7-1.4-1.3-3.1-1.7-4.6c-0.9-3.1-1.4-6.3-1.4-9.4s0.4-6.3,1.1-9.3s1.9-5.9,3.5-8.6c1.5-2.6,3.5-5.1,5.8-7.2s4.9-3.7,7.5-4.9
		C43,5.9,48.1,4.9,53,3.9c1.4-0.3,2.7,0.6,3,2c0.2,1.1-0.3,2.2-1.2,2.7l0,0c-4.4,2.5-8.9,4.8-12.3,7.6c-3.5,2.7-5.6,5.9-6.8,9.7
		c-1.3,3.7-1.6,7.7-0.9,11.4c0.3,1.9,0.9,3.6,1.6,5.3c0.4,0.8,0.8,1.5,1.3,2.3s1.1,1.6,1.7,2.6c1.3,1.9,3,4,4.6,6.8
		c1.6,2.7,3.1,6.4,3.6,10.1c0.3,1.8,0.3,3.8,0.2,5.7c-0.2,1.9-0.5,3.8-1,5.7c-1,3.7-2.9,6.9-4.9,9.6c-4.1,5.5-9,9.2-13.8,12.3
		c-4.9,3-9.8,5.4-14.8,7.3c-5,2-10.7-0.5-12.6-5.5C-1.2,94.6,0.9,89.3,5.6,87L5.6,87z"/>
</g>
<path class="st1" d="M55.8,22.3c-5.1,0-9.2,4.1-9.2,9.2c0.4,12.2,17.9,12.2,18.4,0C65,26.4,60.9,22.3,55.8,22.3z"/>
</svg>
