<?xml version="1.0" encoding="utf-8"?>
<!-- Generator: Adobe Illustrator 24.1.1, SVG Export Plug-In . SVG Version: 6.00 Build 0)  -->
<svg version="1.1" id="Calque_1" xmlns="http://www.w3.org/2000/svg" xmlns:xlink="http://www.w3.org/1999/xlink" x="0px" y="0px"
	 viewBox="0 0 92.2 98.7" style="enable-background:new 0 0 92.2 98.7;" xml:space="preserve">
<style type="text/css">
	.st0{fill:#FFEEDA;}
	.st1{fill-rule:evenodd;clip-rule:evenodd;fill:#FFEEDA;}
</style>
<g>
	<path class="st0" d="M66.4,79.3c1.4-0.3,2.9-1.1,4-2.3c1.1-1.2,1.7-2.3,1.9-3.9c0.2-1.6-0.1-3.3-0.8-4.5c-0.4-0.7-0.9-1.4-1.8-2.3
		c-0.8-0.9-1.9-1.8-3.1-2.8c-2.5-2-5.9-4.3-9.3-7.6c-1.7-1.7-3.4-3.7-4.9-6.1c-0.4-0.6-0.7-1.2-1-1.9l-0.5-1l-0.5-1.1
		c-0.6-1.5-1-3.1-1.2-4.6c-0.4-3.1-0.3-6.3,0.8-9.6c1-3.2,3.3-6.7,6.6-8.9c1.6-1.1,3.3-1.8,5-2.3c1.6-0.5,3.2-0.7,4.6-0.8
		c2.7-0.1,4.9,0.1,6.6,0.2l1.2,0.1h0.5c0.1,0,0.2,0,0.4,0c0.5,0,1,0,1.4,0s0.7-0.1,0.9-0.2c0.2,0,0.2,0,0.1,0.1
		c-0.1,0.2-0.4,0.6-0.4,1c0,0.2-0.1,0.4,0,0.5c0,0.1,0,0.2,0,0.3c0,0.1,0,0.2,0.1,0.3c0.1,0.3,0.3,0.5,0.2,0.3
		c0-0.1-0.2-0.4-0.5-0.7C76,21,75,20.3,73.8,19.6c-0.5-0.3-1.4-0.7-2.1-1c-0.8-0.4-1.5-0.7-2.3-1.1c-3.1-1.4-6.4-2.6-9.7-3.7
		C46.5,9.5,32.3,7.6,18,8.5l0,0c-1.4,0.1-2.6-1-2.7-2.4c-0.1-1.2,0.7-2.3,1.8-2.6c14.6-4.1,30.3-4.6,45.6-1.7
		c3.8,0.7,7.6,1.6,11.4,2.8C75,5,76,5.3,76.9,5.6c1,0.3,1.8,0.6,2.9,1.1c2.2,0.9,4.3,2,6.5,3.8c1.1,0.9,2.2,1.9,3.2,3.4
		c1,1.4,1.9,3.2,2.4,5.4c0.1,0.5,0.2,1.1,0.2,1.6c0,0.6,0,1.1,0,1.7c-0.1,1.1-0.2,2.2-0.6,3.2c-0.6,2.1-1.9,4.1-3.3,5.6
		s-3,2.5-4.5,3.2s-2.9,1.2-4.3,1.5s-2.7,0.5-4.1,0.6c-0.3,0-0.7,0-1,0h-0.9h-1.5c-1.9,0-3.4,0-4.4,0.1s-1,0.4-0.8,0.3
		c0.3-0.1,0.4-0.4,0.4-0.1c0,0.2,0,0.8,0.1,1.3c0.2,0.6,0.3,0.8,0.8,1.6c0.5,0.7,1.2,1.5,2.2,2.3c1.9,1.7,4.6,3.5,8,5.9
		c1.7,1.2,3.4,2.6,5.2,4.3c1.8,1.7,3.6,3.8,5,6.3c3,5.2,4.1,11,3.4,16.7c-0.3,2.9-1.2,5.7-2.5,8.4c-1.3,2.7-3,5.1-5.1,7.1
		c-4.1,4.1-9.4,6.8-15.3,7.6c-5.3,0.7-10.2-3-10.9-8.3c-0.7-5.1,2.7-9.8,7.6-10.8L66.4,79.3z"/>
</g>
<g>
	<path class="st0" d="M25.3,93.5c-3.9-1.1-7.6-3-10.8-5.4s-5.9-5.3-8.1-8.5C2,73.1-0.4,65.3,0.1,57.4C0.5,49.5,3.8,42.3,8.6,37
		s11.2-9.1,18-9.8c1.4-0.2,2.7,0.9,2.8,2.3c0.1,0.9-0.3,1.8-1,2.3l-0.1,0.1c-4.5,3.4-7.6,7.6-9.5,12.1s-2.5,9.1-1.9,13.2
		c0.7,4,2.5,7.9,5.2,11c2.6,3.2,5.9,5.5,9.3,7l0.4,0.2c4.9,2.1,7.2,7.9,5,12.8C34.9,92.6,29.9,94.8,25.3,93.5z"/>
</g>
<path class="st1" d="M37.1,45.9c-5.1,0-9.2,4.1-9.2,9.2c0.4,12.2,17.9,12.2,18.4,0C46.3,50,42.2,45.9,37.1,45.9z"/>
</svg>
