<?xml version="1.0" encoding="utf-8"?>
<!-- Generator: Adobe Illustrator 24.1.1, SVG Export Plug-In . SVG Version: 6.00 Build 0)  -->
<svg version="1.1" id="Calque_1" xmlns="http://www.w3.org/2000/svg" xmlns:xlink="http://www.w3.org/1999/xlink" x="0px" y="0px"
	 viewBox="0 0 101.7 112.1" style="enable-background:new 0 0 101.7 112.1;" xml:space="preserve">
<style type="text/css">
	.st0{fill:#FFEEDA;}
	.st1{fill-rule:evenodd;clip-rule:evenodd;fill:#FFEEDA;}
</style>
<g>
	<path class="st0" d="M15.8,77.6c5.4,4.3,11.2,8,17.2,10.6c6,2.7,12.4,4.2,18.5,4.5c6.1,0.2,12.5-1,18-3.6c2.7-1.3,5.3-2.9,7.5-4.8
		c1.1-1,2.1-2,3.1-3.1c0.5-0.5,0.9-1.1,1.3-1.7s0.8-1.2,1.2-1.8c2.9-5,4.3-11.3,3.5-17.1c-0.4-2.9-1.2-5.7-2.7-8.2
		c-1.4-2.4-3.5-4.7-6.2-7.1c-2.7-2.4-5.8-4.8-8.9-7.9c-3-3-6-6.9-7.5-11.5c-1.5-4.5-1.6-9.2-0.7-13.5c1-4.4,3.1-8.4,6.1-11.6
		c1-1,2.6-1,3.5,0c0.9,0.8,1,2.2,0.4,3.1L70,4c-0.9,1.4-1.6,3-2,4.6c-0.5,1.6-0.8,3.2-0.8,4.8c-0.1,3.2,0.6,6.5,2,9.1
		s3.5,4.8,6.2,6.8c2.7,2.1,5.9,4,9.3,6.3c1.7,1.2,3.4,2.4,5.1,4c1.7,1.5,3.3,3.3,4.8,5.3c2.9,3.9,4.8,8.4,5.9,13s1.3,9.4,0.8,14.1
		s-1.8,9.3-3.9,13.6c-0.6,1.1-1.1,2.1-1.7,3.2c-0.7,1-1.3,2.1-2,3c-1.4,1.9-3,3.8-4.6,5.4c-3.4,3.4-7.2,6.2-11.3,8.4
		c-8.2,4.4-17.3,6.6-26.6,6.6c-9.2,0-18.1-2.2-26.2-5.7c-8-3.6-15.3-8.3-21.7-13.9c-4.1-3.5-4.5-9.7-0.9-13.7
		C5.8,74.9,11.7,74.4,15.8,77.6L15.8,77.6z"/>
</g>
<g>
	<path class="st0" d="M34.8,82.3c-9.6-3.6-16.8-12-19-22c-1.1-5-0.9-10,0.4-14.8c0.6-2.4,1.6-4.7,2.8-6.8c1.2-2.2,2.7-4.2,4.2-5.8
		c3.1-3.3,6.2-5.6,8.8-7.6c2.7-2,4.6-3.6,6.5-5.9c3.7-4.5,6.3-10.3,7.3-16.9V2.4C46,1,47.3,0,48.7,0.2c1,0.1,1.8,0.8,2.1,1.7
		C53,9.4,52.4,18,49,25.6c-1.6,3.8-4.3,7.6-6.8,10.4c-2.5,2.9-4.7,5.3-6,7.4c-0.7,1.1-1.1,2-1.5,3c-0.3,1-0.6,2.1-0.7,3.1
		c-0.2,2.1-0.1,4.2,0.5,6.1c1.1,3.6,4.2,7,7.6,8.7l0.5,0.2c4.8,2.4,6.7,8.3,4.3,13.1C44.6,82.1,39.3,84.1,34.8,82.3z"/>
</g>
<path class="st1" d="M56.1,44.4c-5.1,0-9.2,4.1-9.2,9.2c0.4,12.2,17.9,12.2,18.4,0C65.3,48.5,61.2,44.4,56.1,44.4z"/>
</svg>
