<?xml version="1.0" encoding="utf-8"?>
<!-- Generator: Adobe Illustrator 24.1.1, SVG Export Plug-In . SVG Version: 6.00 Build 0)  -->
<svg version="1.1" id="Calque_1" xmlns="http://www.w3.org/2000/svg" xmlns:xlink="http://www.w3.org/1999/xlink" x="0px" y="0px"
	 viewBox="0 0 118.5 109.2" style="enable-background:new 0 0 118.5 109.2;" xml:space="preserve">
<style type="text/css">
	.st0{fill:#FFEEDA;}
	.st1{fill-rule:evenodd;clip-rule:evenodd;fill:#FFEEDA;}
</style>
<g>
	<path class="st0" d="M39.7,44.9c-5.3,0.2-11,2.8-14.8,6.9c-0.5,0.5-0.9,1-1.4,1.6c-0.4,0.6-0.8,1.1-1.2,1.7c-0.4,0.6-0.7,1.2-1,1.7
		c-0.2,0.6-0.6,1.2-0.8,1.9c-0.9,2.5-1.3,5.4-1.2,8.2c0.1,1.4,0.3,2.8,0.6,4.2c0.4,1.4,0.8,2.7,1.4,4s1.3,2.5,2.1,3.6
		c0.5,0.6,1.1,1.3,1.6,1.9l0.8,1c0.3,0.3,0.6,0.6,0.9,0.9c4.7,4.7,10.3,8.2,16.8,9.6c1.6,0.4,3.3,0.6,4.9,0.8l2.5,0.1
		c0.9,0,1.7,0,2.6,0c3.5-0.2,7-0.6,10.5-1.6c3.5-0.9,7-2.1,10.4-3.7s6.7-3.4,9.9-5.5c6.3-4.2,12.2-9.3,17.2-15.3
		c2.5-3,4.8-6.1,6.8-9.5c0.5-0.8,0.9-1.7,1.4-2.6l0.7-1.3l0.6-1.3c0.9-1.8,1.6-3.6,2.3-5.4v-0.1c0.5-1.3,2-1.9,3.2-1.4
		c1.1,0.4,1.7,1.6,1.6,2.7c-0.6,4.3-1.8,8.5-3.4,12.6c-1.5,4.1-3.6,7.9-5.9,11.7c-2.3,3.7-5,7.2-7.8,10.5c-2.4,3.2-5.6,6.2-9,9.1
		c-6.8,5.7-14.6,10.4-23.2,13.6c-4.3,1.6-8.9,2.6-13.6,3.3c-4.7,0.6-9.6,0.6-14.5-0.2c-9.8-1.4-19.2-6.2-26.4-12.8
		c-0.5-0.4-0.9-0.8-1.4-1.2l-1.3-1.3c-0.8-0.9-1.7-1.7-2.5-2.7c-1.8-2.1-3.3-4.4-4.6-6.8c-1.2-2.4-2.3-4.9-3-7.5S0.3,71.1,0,68.4
		c-0.3-5.5,0.2-11,2-16.2c0.4-1.3,1-2.6,1.5-3.9c0.6-1.2,1.2-2.5,2-3.7c1.4-2.4,3.1-4.6,5-6.5c3.7-4,8.2-7.1,13.1-9.3
		c2.5-1.1,5.1-1.9,7.7-2.5c2.7-0.6,5.4-0.8,8.2-0.9c5.4,0,9.8,4.3,9.8,9.7c0,5.3-4.1,9.6-9.3,9.8L39.7,44.9z"/>
</g>
<g>
	<path class="st0" d="M65.5,53.4c2.5-1,4.9-2.5,6.8-4.5c1-1,1.8-2.1,2.5-3.2c0.7-1.1,1.3-2.4,1.7-3.7c0.8-2.6,1.2-5.6,0.7-8.4
		c-0.4-2.8-1.5-5.5-3.3-8.2c-1.8-2.6-4.3-5.1-7.3-7.2c-1.5-1.1-3-2.1-4.7-2.9c-1.6-0.9-3.5-1.7-5.3-2.4C49.2,10,40.7,8.4,32.1,6.4
		c-1.4-0.3-2.2-1.7-1.9-3.1c0.2-1.1,1.1-1.8,2.1-1.9l0,0c4.4-0.6,8.8-1,13.4-1.2c2.3-0.1,4.6,0,6.9,0.1c2.3,0.1,4.7,0.4,7.1,0.7
		c9.5,1.5,19.5,5.6,27.1,13.7c3.7,4.1,6.8,9.2,8.3,15c1.5,5.7,1.5,11.7,0.1,17.5c-0.7,2.9-1.8,5.8-3.3,8.4c-1.5,2.6-3.3,5.1-5.3,7.2
		c-4.1,4.3-9.3,7.6-15.2,9.2c-5.2,1.5-10.6-1.5-12-6.7c-1.4-4.8,1.1-9.8,5.7-11.7L65.5,53.4z"/>
</g>
<path class="st1" d="M41.3,56.7c-5.1,0-9.2,4.1-9.2,9.2C32.6,78,50,78,50.5,65.8C50.5,60.8,46.4,56.7,41.3,56.7z"/>
</svg>
