<?xml version="1.0" encoding="utf-8"?>
<!-- Generator: Adobe Illustrator 24.1.1, SVG Export Plug-In . SVG Version: 6.00 Build 0)  -->
<svg version="1.1" id="Calque_1" xmlns="http://www.w3.org/2000/svg" xmlns:xlink="http://www.w3.org/1999/xlink" x="0px" y="0px"
	 viewBox="0 0 120.4 93.4" style="enable-background:new 0 0 120.4 93.4;" xml:space="preserve">
<style type="text/css">
	.st0{fill:#FFEEDA;}
	.st1{fill-rule:evenodd;clip-rule:evenodd;fill:#FFEEDA;}
</style>
<g>
	<path class="st0" d="M44.4,86.8c-1.6-4.4-3.3-8.8-5.5-13.1c-2.2-4.3-4.7-8.4-7.7-12.3S24.8,53.8,21,50.3c-3.8-3.5-8-6.7-12.6-9.8
		l0,0c-1.2-0.8-1.5-2.4-0.7-3.6c0.5-0.8,1.4-1.2,2.2-1.1c6,0.2,12,1.7,17.7,4.1c5.7,2.4,11,5.8,15.8,9.8c4.8,4.1,9,8.9,12.4,14.3
		s6.1,11.3,7.5,17.6c1.2,5.3-2.2,10.5-7.4,11.6c-4.9,1.1-9.7-1.7-11.3-6.3L44.4,86.8z"/>
</g>
<g>
	<path class="st0" d="M5.1,9.7C9.5,7.4,14.3,6.1,19,5.9c2.3-0.2,4.6,0,6.8,0.3s4.3,0.8,6.4,1.4c4.1,1.2,7.9,3,11.5,5.1
		c3.5,2.1,6.5,4.4,9.4,6.8c5.7,4.7,10.3,9.7,14.9,13.8c2.3,2,4.6,3.9,6.9,5.5c2.4,1.6,4.8,2.9,7.2,3.9c2.4,0.9,4.8,1.6,7.2,1.7h0.9
		H91c0.6,0,1.1-0.1,1.7-0.1s1.1-0.2,1.7-0.3c0.6-0.2,1.1-0.3,1.7-0.5c4.6-1.6,8.9-5.1,11.3-9.6c1.2-2.2,2-4.7,2.2-7.3
		s-0.1-5.4-0.9-8.1c-0.2-0.7-0.5-1.3-0.7-2c-0.3-0.7-0.6-1.3-0.9-2c-0.4-0.6-0.7-1.3-1.1-1.9c-0.4-0.6-0.8-1.2-1.2-1.8l-0.8-1
		c-0.2-0.3-0.5-0.5-0.7-0.8c-0.5-0.6-1-1.1-1.6-1.6c-0.5-0.5-1.1-0.9-1.7-1.4s-1.2-0.8-1.9-1.3l-0.2-0.1c-1.1-0.8-1.4-2.3-0.7-3.5
		c0.6-0.9,1.8-1.3,2.8-1c7.2,2.2,13.4,7.7,17,14.7c1.8,3.5,3,7.4,3.3,11.5s-0.3,8.4-1.7,12.3c-0.7,2-1.6,3.9-2.7,5.7
		c-0.6,0.9-1.1,1.8-1.8,2.6c-0.7,0.8-1.3,1.7-2,2.4c-2.8,3.1-6.2,5.7-10.1,7.7c-1,0.5-2,0.9-3,1.3c-1,0.3-2.1,0.7-3.2,1
		s-2.2,0.5-3.3,0.7l-1.7,0.2l-1.6,0.1c-1.1,0.1-2.2,0-3.3,0c-1.1-0.1-2.2-0.1-3.2-0.3c-2.1-0.2-4.2-0.8-6.2-1.3
		c-4-1.2-7.6-2.9-11-4.8c-3.4-1.9-6.5-4.1-9.4-6.4c-5.7-4.5-10.7-9.1-15.5-12.9c-2.4-1.9-4.8-3.5-7.1-4.9c-2.2-1.3-4.6-2.3-7-3
		c-1.2-0.4-2.4-0.6-3.5-0.8c-1.1-0.1-2.3-0.2-3.3-0.2c-0.5,0-1,0.1-1.5,0.1c-0.5,0.1-1,0.1-1.4,0.3c-0.9,0.2-1.8,0.5-2.6,0.9
		l-0.9,0.4c-5,2-10.6-0.5-12.6-5.5C-1.1,17.2,0.8,12,5.1,9.7z"/>
</g>
<path class="st1" d="M88.3,18.5c-5.1,0-9.2,4.1-9.2,9.2c0.4,12.2,17.9,12.2,18.4,0C97.5,22.6,93.4,18.5,88.3,18.5z"/>
</svg>
