<?xml version="1.0" encoding="utf-8"?>
<!-- Generator: Adobe Illustrator 24.1.1, SVG Export Plug-In . SVG Version: 6.00 Build 0)  -->
<svg version="1.1" id="Calque_1" xmlns="http://www.w3.org/2000/svg" xmlns:xlink="http://www.w3.org/1999/xlink" x="0px" y="0px"
	 viewBox="0 0 103.1 98.6" style="enable-background:new 0 0 103.1 98.6;" xml:space="preserve">
<style type="text/css">
	.st0{fill:#FFEEDA;}
	.st1{fill-rule:evenodd;clip-rule:evenodd;fill:#FFEEDA;}
</style>
<g>
	<path class="st0" d="M75.6,18.3c-9.2,5.1-17.4,11.8-22.6,20c-1.3,2.1-2.4,4.2-3.3,6.4c-0.9,2.2-1.6,4.4-2,6.7s-0.6,4.7-0.6,7.1
		c0.1,2.4,0.4,4.7,0.9,7c0.5,2.3,1.4,4.5,2.4,6.5c0.3,0.5,0.5,1,0.8,1.5l0.9,1.5c0.7,0.9,1.3,1.8,2.2,2.7c3,3.5,7.4,6,12.3,7.9
		c2.5,0.9,5.1,1.6,7.8,2.1c2.7,0.6,5.5,0.9,8.4,1.1c5.7,0.5,11.7,0.4,17.8,0.5c1.4,0,2.5,1.2,2.5,2.6c0,1.2-0.8,2.1-1.9,2.4
		c-5.9,1.5-11.9,2.9-18.1,3.6c-3.1,0.3-6.4,0.6-9.6,0.5c-3.3-0.1-6.6-0.4-9.9-1c-3.3-0.6-6.7-1.7-9.9-3.1c-3.2-1.5-6.4-3.3-9.3-5.7
		c-1.5-1.2-2.7-2.5-4-3.9l-1.8-2.2C38,81.8,37.5,81,37,80.2c-2-3.1-3.8-6.4-4.9-9.9c-1.2-3.5-2-7-2.4-10.6s-0.4-7.3,0-10.9
		c0.4-3.6,1.2-7.3,2.4-10.8c1.1-3.5,2.7-6.7,4.5-9.8s3.8-6,6.1-8.7s4.7-5.2,7.3-7.5c4.9-4.4,10.7-8.1,16.8-11
		c4.9-2.3,10.7-0.3,13,4.6C82,10.2,80.2,15.8,75.6,18.3L75.6,18.3z"/>
</g>
<g>
	<path class="st0" d="M3.1,83.8c-2-6.6-2.9-13.5-3.1-20.5c-0.2-6.9,0.6-13.9,2.2-20.7c1.6-6.7,4.2-13.3,7.6-19.2s7.6-11.3,12.6-15.7
		c1.1-0.9,2.7-0.8,3.6,0.2c0.6,0.7,0.8,1.7,0.5,2.6l0,0c-2.2,5.9-4,11.7-5.3,17.5c-1.3,5.8-2.1,11.5-2.3,17.2
		c-0.3,5.7-0.1,11.4,0.5,17s1.5,11.2,2.6,16.9v0.1c1,5.3-2.5,10.4-7.8,11.4C9.3,91.5,4.5,88.5,3.1,83.8z"/>
</g>
<path class="st1" d="M71.6,51.7c-5.1,0-9.2,4.1-9.2,9.2c0.4,12.2,17.9,12.2,18.4,0C80.8,55.8,76.7,51.7,71.6,51.7z"/>
</svg>
