<?xml version="1.0" encoding="utf-8"?>
<!-- Generator: Adobe Illustrator 24.1.1, SVG Export Plug-In . SVG Version: 6.00 Build 0)  -->
<svg version="1.1" id="Calque_1" xmlns="http://www.w3.org/2000/svg" xmlns:xlink="http://www.w3.org/1999/xlink" x="0px" y="0px"
	 viewBox="0 0 109.6 105" style="enable-background:new 0 0 109.6 105;" xml:space="preserve">
<style type="text/css">
	.st0{fill:#FFEEDA;}
	.st1{fill-rule:evenodd;clip-rule:evenodd;fill:#FFEEDA;}
</style>
<g>
	<path class="st0" d="M68.3,90.8c-2.4,0.5-4.9,0.6-7.3,0.6c-2.4-0.1-4.8-0.5-7.2-1.1c-2.3-0.6-4.6-1.5-6.8-2.5
		c-2.2-1.1-4.2-2.4-6.1-3.8c-1.9-1.5-3.7-3.2-5.2-5c-1.6-1.9-2.9-4-4-6.1c-1.1-2.2-1.9-4.4-2.6-6.7c-0.6-2.3-0.9-4.6-1.1-6.9
		c-0.1-2.3,0-4.6,0.3-6.9c0.3-2.3,0.9-4.5,1.7-6.7c0.8-2.1,1.8-4.2,3.1-6.1c1.3-1.9,2.7-3.6,4.2-5.1c6.2-6.1,14.8-9.3,22.8-8.3
		c1.4,0.2,2.4,1.4,2.2,2.8c-0.1,1-0.8,1.8-1.7,2.1h-0.1c-6.2,2.2-11,6.4-13.7,11.2c-0.7,1.2-1.2,2.4-1.6,3.7
		c-0.4,1.2-0.7,2.5-0.8,3.7c-0.1,1.3-0.2,2.5-0.1,3.8c0.1,1.3,0.3,2.5,0.6,3.7s0.7,2.4,1.2,3.5s1.1,2.1,1.7,3.1
		c0.7,0.9,1.4,1.7,2.2,2.5c0.8,0.7,1.7,1.5,2.6,2.1c3.8,2.5,8.6,3.6,12.8,3.2h0.4C71,71,75.7,75,76.2,80.4
		C76.6,85.4,73.1,89.8,68.3,90.8z"/>
</g>
<g>
	<path class="st0" d="M0.2,59.6c-1-10.6,1.3-21.2,6.1-30.4c2.4-4.6,5.5-8.9,9.1-12.7s7.9-7.1,12.5-9.6c9.2-5.1,19.6-7.3,29.9-6.8
		C63,0.4,68.1,1.4,73,3.2c4.9,1.7,9.4,4.2,13.5,7.1c4.1,3,7.8,6.5,10.9,10.4c3.1,4,5.7,8.3,7.6,12.9s3.2,9.4,3.9,14.2
		c0.7,4.8,0.8,9.8,0.1,14.6c-0.6,4.8-1.9,9.6-3.7,14c-1.9,4.4-4.4,8.5-7.3,12.2c-5.7,7.4-13.4,13.1-22,16.3
		c-1.3,0.5-2.7-0.2-3.2-1.5c-0.4-1.1,0-2.4,1.1-3l0,0c14-8.5,23-23.9,23-38.9c0.1-7.6-1.8-15.1-5.2-21.6c-1.7-3.3-3.8-6.2-6.3-8.9
		c-2.5-2.6-5.3-4.9-8.3-6.8c-3-1.9-6.3-3.4-9.6-4.3c-3.3-1-6.8-1.4-10.2-1.5c-7,0-13.9,1.9-19.7,5.3c-2.9,1.7-5.5,3.9-7.8,6.3
		c-2.3,2.5-4.3,5.3-5.8,8.3c-3.1,6.1-4.7,13-4.3,19.6v0.2c0.3,5.4-3.9,9.9-9.3,10.2C5.2,68.6,0.7,64.7,0.2,59.6z"/>
</g>
<path class="st1" d="M67.3,40.9c-5.1,0-9.2,4.1-9.2,9.2c0.4,12.2,17.9,12.2,18.4,0C76.5,45,72.4,40.9,67.3,40.9z"/>
</svg>
