<?xml version="1.0" encoding="utf-8"?>
<!-- Generator: Adobe Illustrator 24.1.1, SVG Export Plug-In . SVG Version: 6.00 Build 0)  -->
<svg version="1.1" id="Calque_1" xmlns="http://www.w3.org/2000/svg" xmlns:xlink="http://www.w3.org/1999/xlink" x="0px" y="0px"
	 viewBox="0 0 124.9 103.5" style="enable-background:new 0 0 124.9 103.5;" xml:space="preserve">
<style type="text/css">
	.st0{fill:#FFEEDA;}
	.st1{fill-rule:evenodd;clip-rule:evenodd;fill:#FFEEDA;}
</style>
<g>
	<path class="st0" d="M26.6,79c-6.8-3.9-11.9-9.8-15.3-16.2C8,56.4,6.2,49.2,6.2,41.9s2.1-15.1,6.7-21.5c2.3-3.2,5.2-6,8.5-8.1
		c0.4-0.3,0.8-0.5,1.2-0.8l1.4-0.8c0.9-0.5,1.9-0.9,2.9-1.3c2-0.8,4.3-1.3,6.6-1.5s4.8,0.1,7.1,0.8s4.5,1.8,6.3,3.2
		c0.9,0.7,1.8,1.4,2.5,2.2c0.4,0.4,0.7,0.7,1.2,1.3l0.6,0.7c0.2,0.2,0.3,0.5,0.5,0.7c1.3,1.9,2,3.6,2.6,5s1.1,2.7,1.5,3.6
		c0.4,1,0.8,1.6,0.9,1.9c0.1,0.2,0.1,0.2,0.1,0.3c0.1,0.1,0.4,0.3,0.6,0.4c0.4,0.2,0.9,0.4,1.7,0.3c1.5,0,3.7-0.7,5.8-1.9
		c2.2-1.1,4.3-2.6,6.5-4.3c2.2-1.6,4.3-3.4,6.4-5.3s4.2-3.8,6.6-5.7c1.1-0.9,2.7-0.7,3.5,0.4c0.7,0.9,0.7,2.1,0.1,3v0.1
		c-1.6,2.2-3.2,4.7-4.8,7c-1.7,2.4-3.5,4.7-5.4,7.1c-2,2.3-4.1,4.5-6.7,6.6c-2.6,2-5.6,4-9.7,5.1c-2,0.5-4.4,0.7-6.8,0.2
		c-1.2-0.2-2.3-0.6-3.5-1.1c-1.3-0.6-2.4-1.3-3.4-2.2c-2-1.7-3.2-3.4-4.2-4.9s-1.7-2.9-2.4-4s-1.3-2-1.7-2.4l-0.1-0.1
		c0,0-0.1,0-0.1-0.1l-0.3-0.2c-0.3-0.2-0.6-0.4-0.8-0.5c-1-0.5-1.8-0.5-2.8-0.3c-0.5,0.1-1.1,0.3-1.6,0.7c-0.3,0.1-0.6,0.4-0.9,0.6
		l-0.5,0.3c-0.2,0.1-0.4,0.3-0.5,0.4c-1.4,1.2-2.6,2.5-3.5,4c-1.8,3-2.6,6.8-2.5,10.9c0.2,4.1,1.4,8.3,3.3,11.9
		c1.9,3.7,4.7,6.7,7.7,8.7l0.3,0.2c4.4,3,5.6,9.1,2.6,13.5C36.6,80.2,31,81.5,26.6,79z"/>
</g>
<g>
	<path class="st0" d="M123.9,14c-1,2.1-2.1,4-3.3,5.8c-1.2,1.8-2.6,3.5-3.9,5c-2.7,3.1-5.6,5.7-8.4,8.2c-1.4,1.2-2.8,2.4-4.1,3.5
		l-1.9,1.7l-0.9,0.8l-0.8,0.7c-2.2,2-4.1,4-5.7,6.2s-2.9,4.6-4.1,7.2c-1.2,2.6-2.1,5.4-3.1,8.8c-1,3.3-2,6.8-3.3,10.4
		s-2.9,7.4-5.2,11.1c-2.2,3.7-5.2,7.1-8.5,9.9s-6.9,5-10.8,6.7c-3.9,1.6-7.9,2.7-12.1,3.2c-4.1,0.5-8.4,0.4-12.5-0.5
		s-8-2.5-11.4-4.6s-6.4-4.5-9.1-7.1C9.3,85.9,4.9,80.3,0.6,74.9l0,0c-0.9-1.1-0.7-2.7,0.4-3.5c0.9-0.7,2.2-0.7,3.1,0
		c5.6,4.3,10.8,9,16.4,12.7c5.4,3.7,11.2,6.2,16.7,6.6c2.8,0.2,5.6-0.1,8.3-0.8c2.7-0.7,5.4-1.8,7.9-3.2c2.5-1.4,4.7-3.1,6.5-5
		c0.9-1,1.8-2,2.5-3.1s1.4-2.2,2-3.4c1.2-2.4,2.2-5.2,3-8.2s1.5-6.3,2.4-9.7l0.6-2.6l0.3-1.3l0.4-1.4c0.5-1.9,1.1-3.8,1.9-5.8
		c1.4-3.9,3.4-7.7,5.8-11.2c1.2-1.8,2.5-3.5,3.9-5c1.4-1.6,2.8-3.1,4.3-4.5l1.1-1l1-0.9l2-1.8l3.9-3.4c5-4.4,9-8.5,11.3-12.8
		l0.2-0.3c2.5-4.7,8.4-6.5,13.2-4C124.4,3.6,126.2,9.3,123.9,14z"/>
</g>
<path class="st1" d="M48.9,44.9c-5.1,0-9.2,4.1-9.2,9.2c0.4,12.2,17.9,12.2,18.4,0C58.1,49,54,44.9,48.9,44.9z"/>
</svg>
