<?xml version="1.0" encoding="utf-8"?>
<!-- Generator: Adobe Illustrator 24.1.1, SVG Export Plug-In . SVG Version: 6.00 Build 0)  -->
<svg version="1.1" id="Calque_1" xmlns="http://www.w3.org/2000/svg" xmlns:xlink="http://www.w3.org/1999/xlink" x="0px" y="0px"
	 viewBox="0 0 104.5 112.5" style="enable-background:new 0 0 104.5 112.5;" xml:space="preserve">
<style type="text/css">
	.st0{fill:#FFEEDA;}
</style>
<g>
	<path class="st0" d="M104.5,51.5c0,0.1,0,0.3,0,0.4C104.5,51.8,104.5,51.7,104.5,51.5L104.5,51.5z"/>
	<path class="st0" d="M86.5,112.5c-11-7.5,17.3-23,18-60.4c0,28.7-23.3,50.9-52,50.9c-28.7,0-52-22.3-52-51c0-0.2,0-0.3,0-0.5H0
		c1,38,27.5,53.5,18,61H86.5z"/>
</g>
<g>
	<path class="st0" d="M52.5,2.8c27.1,0,49.2,22.1,49.2,49.2s-22.1,49.2-49.2,49.2S3.3,79.1,3.3,52S25.4,2.8,52.5,2.8 M52.5,0
		c-28.7,0-52,23.3-52,52s23.3,52,52,52s52-23.3,52-52S81.2,0,52.5,0L52.5,0z"/>
</g>
</svg>
