<?xml version="1.0" encoding="utf-8"?>
<!-- Generator: Adobe Illustrator 24.1.1, SVG Export Plug-In . SVG Version: 6.00 Build 0)  -->
<svg version="1.1" id="Calque_1" xmlns="http://www.w3.org/2000/svg" xmlns:xlink="http://www.w3.org/1999/xlink" x="0px" y="0px"
	 viewBox="0 0 141.7 141.7" style="enable-background:new 0 0 141.7 141.7;" xml:space="preserve">
<style type="text/css">
	.st0{fill:#8C8C8C;}
</style>
<g>
	<g>
		<path class="st0" d="M70.9,0C31.7,0,0,31.7,0,70.9s31.7,70.9,70.9,70.9c39.1,0,70.9-31.7,70.9-70.9S110,0,70.9,0z M70.9,131.6
			c-33.5,0-60.7-27.2-60.7-60.7c0-33.5,27.2-60.7,60.7-60.7c33.5,0,60.7,27.2,60.7,60.7C131.6,104.4,104.4,131.6,70.9,131.6z"/>
		<path class="st0" d="M25.6,88.1c15.9,5,62.8,22.4,77.7,11.6s16.8-37.7-9.6-44s-38.1,28-11.1,28.8c0,0-6.7-5.7-1.7-10.7
			c4.9-4.9,15.9,0.4,12.3,9.7C89.2,94,58.6,90.8,25.6,88.1z"/>
		<path class="st0" d="M42.3,36.6c0.7-2,2.1-3.7,3.8-5.2c1.7-1.4,3.6-2.5,5.7-3.3c4.2-1.5,8.7-1.7,12.8-1.2c4.1,0.5,8,1.6,11.6,3
			c3.7,1.4,7.1,2.8,10.9,4.6c-3.9,1.6-8.2,1.8-12.2,1.7c-4-0.2-7.8-0.7-11.3-1.2c-3.6-0.4-7-0.8-10.4-0.6
			C49.7,34.5,46.2,35,42.3,36.6z"/>
		<path class="st0" d="M62.3,56.3c-1.6,3.1-3.7,5.6-6.8,7.6c-3,1.9-7.1,2.9-11.1,2c-2-0.5-4.1-1.5-5.7-2.9c-1.5-1.5-2.5-3-3.2-4.4
			c-0.7-1.4-1.2-2.6-1.9-3.7c-0.7-1.1-1.5-2.2-3.1-3c1.5-1,3.7-0.8,5.5-0.2c1.8,0.7,3.3,1.9,4.5,2.9c1.2,1,2.2,1.9,3.1,2.4
			c0.4,0.3,0.8,0.4,1.2,0.6c0.4,0.2,0.9,0.3,1.4,0.4c1,0.2,2.1,0.3,3.2,0.3c1.2,0,2.4-0.1,3.7-0.3C55.8,57.6,58.8,56.7,62.3,56.3z"
			/>
		<path class="st0" d="M88.4,45c2.3-2.3,5.2-3.6,8.2-4.2c3-0.6,6.1-0.5,9.1,0.3c1.5,0.4,3,0.9,4.3,1.6c1.3,0.7,2.5,1.4,3.6,2.2
			c2.2,1.5,3.9,3.1,6.8,4.5c-1.3,1-2.9,1.5-4.5,1.7c-1.6,0.1-3.2,0-4.6-0.3c-1.5-0.3-2.8-0.6-4-0.9l-3.5-0.9l-7.2-1.8
			C94.1,46.6,91.5,46,88.4,45z"/>
	</g>
</g>
</svg>
