<?xml version="1.0" encoding="utf-8"?>
<!-- Generator: Adobe Illustrator 24.1.1, SVG Export Plug-In . SVG Version: 6.00 Build 0)  -->
<svg version="1.1" id="Calque_1" xmlns="http://www.w3.org/2000/svg" xmlns:xlink="http://www.w3.org/1999/xlink" x="0px" y="0px"
	 viewBox="0 0 141.7 141.7" style="enable-background:new 0 0 141.7 141.7;" xml:space="preserve">
<style type="text/css">
	.st0{fill:#93C020;}
</style>
<g>
	<g>
		<path class="st0" d="M70.9,0C31.7,0,0,31.7,0,70.9c0,39.1,31.7,70.9,70.9,70.9c39.1,0,70.9-31.7,70.9-70.9S110,0,70.9,0z
			 M70.9,131.6c-33.5,0-60.7-27.2-60.7-60.7c0-33.5,27.2-60.7,60.7-60.7c33.5,0,60.7,27.2,60.7,60.7
			C131.6,104.4,104.4,131.6,70.9,131.6z"/>
	</g>
	<g>
		<path class="st0" d="M70.9,22.4c0,0-28.2,21.7-28.2,48.5c0,26.8,28.2,48.5,28.2,48.5s28.2-21.7,28.2-48.5
			C99.1,44.1,70.9,22.4,70.9,22.4z M70.8,105.7c-7.2-7.2-18.1-20.5-18.1-34.8c0-14.4,10.9-27.7,18.1-34.9C78.1,43.2,89,56.5,89,70.9
			C89,85.2,78,98.5,70.8,105.7z"/>
	</g>
	<g>
		<path class="st0" d="M79,79.8L74,83.5c-0.8,0.6-1.6,1.3-2.3,2c-0.1,0.1-0.1,0.1-0.2,0.2c0-0.4,0.1-0.8,0.1-1.2
			c0.3-3.7,0.6-7.3,0.7-11c0.3-0.3,0.6-0.6,0.9-0.9c0.5-0.6,1.1-1.1,1.5-1.8l2.7-3.9l0,0l-3.9,2.7c-0.4,0.3-0.8,0.6-1.2,0.9
			c-0.1-2.7-0.3-5.3-0.5-8c-0.1-0.9-0.2-1.8-0.3-2.8c0.2-0.2,0.4-0.4,0.6-0.6c0.3-0.4,0.7-0.8,0.9-1.2l0.8-1.4
			c0.3-0.5,0.5-0.9,0.8-1.4l0,0c-0.5,0.2-0.9,0.5-1.4,0.8l-1.4,0.8c-0.2,0.1-0.4,0.2-0.6,0.4c-0.2-1.9-0.5-3.7-0.9-5.6h-0.1
			c-0.4,1.8-0.7,3.7-0.9,5.5c-0.1-0.1-0.3-0.2-0.4-0.3L67.6,56c-0.5-0.3-0.9-0.5-1.4-0.8l0,0c0.2,0.5,0.5,0.9,0.8,1.4l0.8,1.4
			c0.3,0.5,0.6,0.8,0.9,1.2c0.1,0.1,0.3,0.3,0.4,0.4c-0.1,1-0.2,1.9-0.3,2.9c-0.2,2.6-0.4,5.3-0.5,7.9c-0.3-0.3-0.7-0.6-1-0.8
			L63.4,67l0,0l2.7,3.9c0.4,0.6,1,1.2,1.5,1.8c0.2,0.3,0.5,0.5,0.7,0.8c0,0,0,0.1,0,0.1c0.1,3.7,0.4,7.3,0.7,11c0,0.3,0.1,0.7,0.1,1
			c-0.7-0.7-1.5-1.4-2.3-2l-4.9-3.7l0,0l3.7,4.9c0.6,0.8,1.3,1.6,2,2.3c0.6,0.6,1.2,1.2,1.9,1.8c0.2,2.2,0.5,4.4,0.9,6.7
			c0.4-2.2,0.7-4.3,0.9-6.5c0.7-0.6,1.4-1.3,2-1.9c0.7-0.7,1.4-1.5,2-2.3L79,79.8L79,79.8z"/>
	</g>
	<g>
		<path class="st0" d="M32,104.8c4.2,6.5,13,8.1,13,8.1s2-8.8-2.2-15.2s-13-8.1-13-8.1S27.8,98.4,32,104.8z"/>
	</g>
	<g>
		<path class="st0" d="M109.7,104.8c-4.2,6.5-13,8.1-13,8.1s-2-8.8,2.2-15.2s13-8.1,13-8.1S113.9,98.4,109.7,104.8z"/>
	</g>
</g>
</svg>
