<?xml version="1.0" encoding="utf-8"?>
<!-- Generator: Adobe Illustrator 24.1.1, SVG Export Plug-In . SVG Version: 6.00 Build 0)  -->
<svg version="1.1" id="Calque_1" xmlns="http://www.w3.org/2000/svg" xmlns:xlink="http://www.w3.org/1999/xlink" x="0px" y="0px"
	 viewBox="0 0 141.7 141.7" style="enable-background:new 0 0 141.7 141.7;" xml:space="preserve">
<style type="text/css">
	.st0{fill:#E52621;}
</style>
<g>
	<g>
		<path class="st0" d="M70.9,0C31.7,0,0,31.7,0,70.9s31.7,70.9,70.9,70.9c39.1,0,70.9-31.7,70.9-70.9S110,0,70.9,0z M70.9,131.6
			c-33.5,0-60.7-27.2-60.7-60.7c0-33.5,27.2-60.7,60.7-60.7c33.5,0,60.7,27.2,60.7,60.7C131.6,104.4,104.4,131.6,70.9,131.6z"/>
	</g>
	<g>
		<path class="st0" d="M83.4,41.2c-1.5,20.7-11.8,33.2-11.8,33.2C76.4,56,63.2,39,60.2,26.1c0,20.4-16.6,42.9-16.6,58
			c0,17.1,11.1,31.5,27.3,31.5c16.3,0,25.9-8.8,27.3-27.7C99.4,69.7,88.4,62.2,83.4,41.2z M88,87.2c-1.1,16.1-8.9,18.3-17.2,18.3
			c-6,0-9.8-3.1-12-5.7c-3.4-4-5.2-9.6-5.2-15.7c0-5,2.8-13.3,6.1-21.1c0.4-0.9,1.4-3,1.8-3.9c2.2,6,3.4,21.6,1.1,27.9
			c8.3-0.7,20-9.2,22.2-17.5C87.1,74.6,88.4,81.2,88,87.2z"/>
	</g>
	<g>
		<path class="st0" d="M106.7,45.4c0,2.8-5.7,8.3-5.7,8.3s-2.5-5.6-2.5-8.4s4.7-9.4,4.7-9.4S106.7,42.6,106.7,45.4z"/>
	</g>
	<g>
		<path class="st0" d="M30.7,53.5c0,2.8,5.7,8.3,5.7,8.3s2.5-5.6,2.5-8.4c0-2.8-4.7-9.4-4.7-9.4S30.7,50.7,30.7,53.5z"/>
	</g>
	<g>
		<path class="st0" d="M76.5,23.3c0,1.6-2.3,9.4-2.3,9.4s-2.3-7.8-2.3-9.4c0-1.6,2.7-5.4,2.7-5.4S76.5,21.7,76.5,23.3z"/>
	</g>
</g>
</svg>
