<?xml version="1.0" encoding="utf-8"?>
<!-- Generator: Adobe Illustrator 24.1.1, SVG Export Plug-In . SVG Version: 6.00 Build 0)  -->
<svg version="1.1" id="Calque_1" xmlns="http://www.w3.org/2000/svg" xmlns:xlink="http://www.w3.org/1999/xlink" x="0px" y="0px"
	 viewBox="0 0 141.7 141.7" style="enable-background:new 0 0 141.7 141.7;" xml:space="preserve">
<style type="text/css">
	.st0{fill:#34B6B8;}
</style>
<g>
	<g>
		<path class="st0" d="M70.9,0C31.7,0,0,31.7,0,70.9s31.7,70.9,70.9,70.9c39.1,0,70.9-31.7,70.9-70.9S110,0,70.9,0z M70.9,131.6
			c-33.5,0-60.7-27.2-60.7-60.7c0-33.5,27.2-60.7,60.7-60.7c33.5,0,60.7,27.2,60.7,60.7C131.6,104.4,104.4,131.6,70.9,131.6z"/>
	</g>
	<g>
		<path class="st0" d="M70.9,25.1c-6.2,25.4-28.3,44.5-28.3,61.3c0,16.8,11.6,30.4,28.3,30.4c16.8,0,28.3-13.6,28.3-30.4
			C99.2,69.5,77.3,50.9,70.9,25.1z M70.9,106.6c-12,0-18.2-10.2-18.2-20.2c0-5.6,5.2-13.9,10.7-22.6c2.5-3.9,5.1-8.1,7.6-12.5
			C73.4,55.7,76,60,78.6,64c5.4,8.6,10.5,16.7,10.5,22.3C89.1,96.4,82.8,106.6,70.9,106.6z"/>
	</g>
	<g>
		<g>
			<g>
				<g>
					<g>
						<g>
							<circle class="st0" cx="101.3" cy="41" r="5.1"/>
						</g>
					</g>
				</g>
			</g>
		</g>
	</g>
	<g>
		<g>
			<g>
				<g>
					<g>
						<g>
							<circle class="st0" cx="37.5" cy="61.8" r="5.1"/>
						</g>
					</g>
				</g>
			</g>
		</g>
	</g>
	<g>
		<g>
			<g>
				<g>
					<g>
						<g>
							<circle class="st0" cx="54" cy="28.9" r="3"/>
						</g>
					</g>
				</g>
			</g>
		</g>
	</g>
	<g>
		<g>
			<g>
				<g>
					<g>
						<g>
							<circle class="st0" cx="103.4" cy="56.8" r="3"/>
						</g>
					</g>
				</g>
			</g>
		</g>
	</g>
</g>
</svg>
