<?xml version="1.0" encoding="utf-8"?>
<!-- Generator: Adobe Illustrator 24.1.1, SVG Export Plug-In . SVG Version: 6.00 Build 0)  -->
<svg version="1.1" id="Calque_1" xmlns="http://www.w3.org/2000/svg" xmlns:xlink="http://www.w3.org/1999/xlink" x="0px" y="0px"
	 viewBox="0 0 470.7 141.7" style="enable-background:new 0 0 470.7 141.7;" xml:space="preserve">
<style type="text/css">
	.st0{fill:#FFFFFF;}
	.st1{fill:none;stroke:#FFFFFF;stroke-width:8.5039;stroke-miterlimit:10;}
</style>
<g>
	<path class="st0" d="M70.9,0C31.7,0,0,31.7,0,70.9s31.7,70.9,70.9,70.9c39.1,0,70.9-31.7,70.9-70.9S110,0,70.9,0z M70.9,131.6
		c-33.5,0-60.7-27.2-60.7-60.7c0-33.5,27.2-60.7,60.7-60.7c33.5,0,60.7,27.2,60.7,60.7C131.6,104.4,104.4,131.6,70.9,131.6z"/>
</g>
<path class="st0" d="M319.3,0c-39.1,0-70.9,31.7-70.9,70.9c0,39.1,31.7,70.9,70.9,70.9c39.1,0,70.9-31.7,70.9-70.9
	C390.1,31.7,358.4,0,319.3,0z M319.3,131.6c-33.5,0-60.7-27.2-60.7-60.7s27.2-60.7,60.7-60.7S380,37.3,380,70.9
	S352.8,131.6,319.3,131.6z"/>
<g>
	<g>
		<line class="st1" x1="171.4" y1="70.9" x2="214.5" y2="70.9"/>
		<g>
			<polygon class="st0" points="210.8,83.6 232.9,70.9 210.8,58.1 			"/>
		</g>
	</g>
</g>
<g>
	<g>
		<line class="st1" x1="409.3" y1="70.9" x2="452.4" y2="70.9"/>
		<g>
			<polygon class="st0" points="448.7,83.6 470.7,70.9 448.7,58.1 			"/>
		</g>
	</g>
</g>
<g>
	<g>
		<path class="st0" d="M64.6,63.5l-14.7-1.6C52.1,49.3,59.4,43,71.8,43c6.2,0,11.1,1.6,14.7,4.9c3.6,3.3,5.4,7.3,5.4,12.2
			c0,2.1-0.4,4.1-1.1,5.9s-1.6,3.2-2.7,4.4c-1.1,1.1-2.9,2.6-5.4,4.4c-1.9,1.4-3.1,2.4-3.6,3c-0.5,0.6-0.9,1.5-1.1,2.7H64.6
			c0-3.2,0.3-5.6,0.9-7c0.6-1.4,1.8-3,3.6-4.6c2.7-2.4,4.4-4.2,5.1-5.4c0.7-1.2,1-2.6,1-4.2c0-1.7-0.4-2.9-1.3-3.8
			c-0.9-0.9-2-1.3-3.3-1.3C66.6,54.2,64.7,57.3,64.6,63.5z M79.5,84v14.7H64.1V84H79.5z"/>
	</g>
</g>
<g>
	<g>
		<path class="st0" d="M313,63.5l-14.7-1.6c2.2-12.5,9.5-18.8,21.9-18.8c6.2,0,11.1,1.6,14.7,4.9c3.6,3.3,5.4,7.3,5.4,12.2
			c0,2.1-0.4,4.1-1.1,5.9s-1.6,3.2-2.7,4.4c-1.1,1.1-2.9,2.6-5.4,4.4c-1.9,1.4-3.1,2.4-3.6,3c-0.5,0.6-0.9,1.5-1.1,2.7H313
			c0-3.2,0.3-5.6,0.9-7c0.6-1.4,1.8-3,3.6-4.6c2.7-2.4,4.4-4.2,5.1-5.4c0.7-1.2,1-2.6,1-4.2c0-1.7-0.4-2.9-1.3-3.8
			c-0.9-0.9-2-1.3-3.3-1.3C315,54.2,313,57.3,313,63.5z M327.9,84v14.7h-15.4V84H327.9z"/>
	</g>
</g>
</svg>
