<?xml version="1.0" encoding="utf-8"?>
<!-- Generator: Adobe Illustrator 24.1.1, SVG Export Plug-In . SVG Version: 6.00 Build 0)  -->
<svg version="1.1" id="Calque_1" xmlns="http://www.w3.org/2000/svg" xmlns:xlink="http://www.w3.org/1999/xlink" x="0px" y="0px"
	 viewBox="0 0 205.4 205.4" style="enable-background:new 0 0 205.4 205.4;" xml:space="preserve">
<style type="text/css">
	.st0{clip-path:url(#SVGID_2_);}
	.st1{opacity:0;fill-rule:evenodd;clip-rule:evenodd;fill:#FFEEDA;}
	.st2{fill:#FFEEDA;}
	.st3{fill-rule:evenodd;clip-rule:evenodd;fill:#FFEEDA;}
</style>
<g>
	<defs>
		<circle id="SVGID_1_" cx="102.7" cy="102.7" r="102.7"/>
	</defs>
	<clipPath id="SVGID_2_">
		<use xlink:href="#SVGID_1_"  style="overflow:visible;"/>
	</clipPath>
	<g class="st0">
		<circle class="st1" cx="102.7" cy="102.7" r="102.7"/>
		<g>
			<path class="st2" d="M-16.4,160.3c1.4-4.4,4-8.4,7.2-11.4c3.2-3,6.8-5.1,10.7-6.6c3.8-1.4,7.9-2.1,12-2c3.9,0,7.7,0.8,11.2,2
				c7,2.3,12.8,6.4,17.5,11c4.7,4.6,8.4,9.7,11.5,15c0.7,1.2,0.3,2.8-0.9,3.5c-0.8,0.5-1.8,0.5-2.6,0l0,0c-5.3-3-10.3-6.2-15.2-8.6
				c-2.5-1.2-4.9-2.2-7.3-3c-2.4-0.8-4.8-1.3-7-1.6c-2.3-0.3-4.4-0.2-6.4,0.1c-1.9,0.3-3.7,0.9-5.4,1.7c-1.6,0.8-3.2,1.8-4.2,3
				c-1.2,1.1-1.9,2.2-2.5,3.4L1.2,168c-2.6,4.7-8.6,6.3-13.2,3.6C-16,169.3-17.8,164.6-16.4,160.3z"/>
			<path class="st2" d="M23.6,175c2.7,7.7,5.1,15,8.5,21.3c3.2,6.3,7.4,11.6,12.5,15.4c5.1,3.7,10.8,5.6,16.7,5.2
				c2.9-0.2,5.5-1,7.7-2.2c2-1.2,3.8-3,4.9-5.2c1-2.2,1.4-4.4,0.9-6.3c-0.2-0.9-0.7-2.2-1.7-3.7c-0.9-1.5-2.1-3.2-3.3-5.4
				c-0.6-1.1-1.2-2.2-1.8-3.5c-0.6-1.3-1-2.7-1.4-4.2c-0.7-3-0.7-6.3,0-9.1c0.6-2.8,1.7-5.2,2.6-7.2c1-2,1.9-3.7,2.7-5.3
				c0.4-0.8,0.7-1.6,1-2.3c0.3-0.7,0.5-1.4,0.6-2.2c0.3-1.5,0.4-3,0.4-4.6c-0.2-3.1-1.3-6.1-3.2-8.6c-4-5.1-11.5-8.2-18.7-7.3
				l-0.1,0c-1.4,0.2-2.6-0.8-2.8-2.2c-0.1-1.2,0.6-2.3,1.7-2.7c2.2-0.7,4.5-1.1,6.8-1.3c2.3-0.1,4.7,0.1,7,0.6
				c4.6,1,9.1,3.1,12.8,6.6c3.7,3.5,6.3,8.2,7.3,13.3c0.5,2.5,0.6,5.1,0.4,7.7c-0.1,1.3-0.3,2.6-0.6,3.8c-0.3,1.2-0.6,2.4-1,3.5
				c-1.5,4.4-3.2,8-3.4,10.5c-0.1,1.2,0,2.1,0.4,3.1c0.2,0.5,0.4,1,0.7,1.5c0.3,0.6,0.7,1.2,1.2,1.8c1,1.4,2.2,2.9,3.6,4.8
				c1.4,1.9,2.9,4.3,3.9,7.3c1,2.9,1.5,6.1,1.3,9.1c-0.1,3-0.8,6-1.9,8.7c-2.2,5.4-5.9,10.1-10.8,13.4c-4.7,3.2-10.1,5.1-15.4,5.7
				c-5.3,0.7-10.6,0.3-15.8-1.1c-5.1-1.3-9.8-3.7-14-6.5c-4.2-2.9-7.9-6.3-11-10.1c-3.1-3.8-5.8-7.8-7.9-11.9
				c-4.3-8.3-7-16.7-9.4-24.5c-1.5-5.2,1.4-10.6,6.5-12.1C16.6,167.4,21.9,170.2,23.6,175z"/>
			<path class="st3" d="M57.5,192.4c0-5.1-4.1-9.2-9.2-9.2c-12.2,0.4-12.2,17.9,0,18.4C53.4,201.6,57.5,197.4,57.5,192.4z"/>
		</g>
	</g>
	<g class="st0">
		<path class="st2" d="M-4.6,87.2c-4.5-4.4-7.3-10.1-8.5-16c-1.2-5.9-0.8-12.1,1.2-17.8C-9.9,47.7-6.2,43-1.8,39.6
			c4.4-3.4,9.7-5.4,14.9-5.5c1.4,0,2.6,1.1,2.7,2.6c0,0.8-0.3,1.5-0.9,2l-0.1,0.1c-3.3,2.8-5.7,5.9-7.4,9.1
			c-1.7,3.2-2.6,6.5-2.8,9.6c-0.2,3,0.3,6.1,1.3,8.9c1,2.8,2.4,5.3,4,7.6l0.4,0.5c3.1,4.4,2.1,10.5-2.2,13.6
			C4,90.9-1.3,90.4-4.6,87.2z"/>
		<path class="st2" d="M-32.8,78.5c-3.4-6.7-4.9-14.6-4.6-22.4c0.3-7.9,2.5-15.8,6.5-23.1c4-7.2,9.8-13.5,16.6-18.1
			C-7.4,10.2,0.6,6.9,9,6c5.3-0.6,10.2,3.2,10.8,8.6c0.6,5-2.8,9.6-7.6,10.6l-0.2,0.1c-5.4,1.2-10.8,3.1-15.7,6
			c-4.9,2.9-9.4,6.6-13,11.1c-3.6,4.5-6.5,9.9-8.5,15.8c-1.9,5.9-2.9,12.4-2.7,19.2l0,0.1c0,1.4-1.1,2.6-2.5,2.6
			C-31.5,79.9-32.4,79.4-32.8,78.5z"/>
		<path class="st3" d="M23.2,67.7c5.1,0,9.2-4.1,9.2-9.2c-0.4-12.2-17.9-12.2-18.4,0C14,63.6,18.1,67.7,23.2,67.7z"/>
		<path class="st2" d="M73.5,2.9C69.2,5,65.1,7,61.5,9.3c-3.7,2.2-6.8,4.7-8.9,7.2c-1,1.2-1.7,2.4-2.2,3.6c-0.5,1.1-0.7,2.2-0.6,3.5
			c0,0.3,0.1,0.6,0.1,0.9c0.1,0.3,0.1,0.6,0.2,0.9c0.1,0.7,0.4,1.4,0.8,2.2c0.7,1.6,1.9,3.7,3.2,6c0.7,1.2,1.4,2.5,2,4
			c0.7,1.4,1.3,3.1,1.7,4.6c0.9,3.1,1.4,6.3,1.4,9.4c0,3.1-0.4,6.3-1.1,9.3c-0.7,3-1.9,5.9-3.5,8.6c-1.5,2.6-3.5,5.1-5.8,7.2
			c-2.3,2.1-4.9,3.7-7.5,4.9C36,84.1,30.9,85.1,26,86.1c-1.4,0.3-2.7-0.6-3-2c-0.2-1.1,0.3-2.2,1.2-2.7l0,0
			c4.4-2.5,8.9-4.8,12.3-7.6c3.5-2.7,5.6-5.9,6.8-9.7c1.3-3.7,1.6-7.7,0.9-11.4c-0.3-1.9-0.9-3.6-1.6-5.3c-0.4-0.8-0.8-1.5-1.3-2.3
			c-0.5-0.8-1.1-1.6-1.7-2.6c-1.3-1.9-3-4-4.6-6.8c-1.6-2.7-3.1-6.4-3.6-10.1c-0.3-1.8-0.3-3.8-0.2-5.7c0.2-1.9,0.5-3.8,1-5.7
			c1-3.7,2.9-6.9,4.9-9.6c4.1-5.5,9-9.2,13.8-12.3c4.9-3,9.8-5.4,14.8-7.3c5-2,10.7,0.5,12.6,5.5C80.2-4.6,78.1,0.7,73.5,2.9
			L73.5,2.9z"/>
	</g>
	<g class="st0">
		<path class="st3" d="M164.7,29.8c0,5.1,4.1,9.2,9.2,9.2c12.2-0.4,12.2-17.9,0-18.4C168.9,20.7,164.7,24.8,164.7,29.8z"/>
		<path class="st2" d="M198.2,0.6c-0.3-1.4-1.1-2.9-2.3-4c-1.2-1.1-2.3-1.7-3.9-1.9c-1.6-0.2-3.3,0.1-4.5,0.8
			c-0.7,0.4-1.4,0.9-2.3,1.8c-0.9,0.8-1.8,1.9-2.8,3.1c-2,2.5-4.3,5.9-7.6,9.3c-1.7,1.7-3.7,3.4-6.1,4.9c-0.6,0.4-1.2,0.7-1.9,1
			l-1,0.5l-1.1,0.5c-1.5,0.6-3.1,1-4.6,1.2c-3.1,0.4-6.3,0.3-9.6-0.8c-3.2-1-6.7-3.3-8.9-6.6c-1.1-1.6-1.8-3.3-2.3-5
			c-0.5-1.6-0.7-3.2-0.8-4.6c-0.1-2.7,0.1-4.9,0.2-6.6l0.1-1.2l0-0.5c0-0.1,0-0.2,0-0.4c0-0.5,0-1,0-1.4c0-0.4-0.1-0.7-0.2-0.9
			c0-0.2,0-0.2,0.1-0.1c0.2,0.1,0.6,0.4,1,0.4c0.2,0,0.4,0.1,0.5,0c0.1,0,0.2,0,0.3,0c0.1,0,0.2,0,0.3-0.1c0.3-0.1,0.5-0.3,0.3-0.2
			c-0.1,0-0.4,0.2-0.7,0.5c-0.7,0.6-1.4,1.6-2.1,2.8c-0.3,0.5-0.7,1.4-1,2.1c-0.4,0.8-0.7,1.5-1.1,2.3c-1.4,3.1-2.6,6.4-3.7,9.7
			c-4.3,13.2-6.1,27.4-5.3,41.7l0,0c0.1,1.4-1,2.6-2.4,2.7c-1.2,0.1-2.3-0.7-2.6-1.8c-4.1-14.6-4.6-30.3-1.7-45.6
			c0.7-3.8,1.6-7.6,2.8-11.4c0.3-0.9,0.6-1.9,0.9-2.8c0.3-1,0.6-1.8,1.1-2.9c0.9-2.2,2-4.3,3.8-6.5c0.9-1.1,1.9-2.2,3.4-3.2
			c1.4-1,3.2-1.9,5.4-2.4c0.5-0.1,1.1-0.2,1.6-0.2c0.6,0,1.1,0,1.7,0c1.1,0.1,2.2,0.2,3.2,0.6c2.1,0.6,4.1,1.9,5.6,3.3
			c1.5,1.4,2.5,3,3.2,4.5c0.7,1.5,1.2,2.9,1.5,4.3c0.3,1.4,0.5,2.7,0.6,4.1c0,0.3,0,0.7,0,1l0,0.9l0,1.5c0,1.9,0,3.4,0.1,4.4
			c0.1,1,0.4,1,0.3,0.8c-0.1-0.3-0.4-0.4-0.1-0.4c0.2,0,0.8,0,1.3-0.1c0.6-0.2,0.8-0.3,1.6-0.8c0.7-0.5,1.5-1.2,2.3-2.2
			c1.7-1.9,3.5-4.6,5.9-8c1.2-1.7,2.6-3.4,4.3-5.2c1.7-1.8,3.8-3.6,6.3-5c5.2-3,11-4.1,16.7-3.4c2.9,0.3,5.7,1.2,8.4,2.5
			c2.7,1.3,5.1,3,7.1,5.1c4.1,4.1,6.8,9.4,7.6,15.3c0.7,5.3-3,10.2-8.3,10.9c-5.1,0.7-9.8-2.7-10.8-7.6L198.2,0.6z"/>
		<path class="st2" d="M212.4,41.6c-1.1,3.9-3,7.6-5.4,10.8c-2.4,3.2-5.3,5.9-8.5,8.1c-6.4,4.4-14.3,6.8-22.2,6.4
			c-7.9-0.4-15.1-3.7-20.4-8.5c-5.3-4.8-9.1-11.2-9.8-18c-0.2-1.4,0.9-2.7,2.3-2.8c0.9-0.1,1.8,0.3,2.3,1l0.1,0.1
			c3.4,4.5,7.6,7.6,12.1,9.5c4.5,1.9,9.1,2.5,13.2,1.9c4-0.7,7.9-2.5,11-5.2c3.2-2.6,5.5-5.9,7-9.3l0.2-0.4c2.1-4.9,7.9-7.2,12.8-5
			C211.4,32,213.7,37,212.4,41.6z"/>
	</g>
	<g class="st0">
		<path class="st3" d="M189.9,156.5c-5.1,0-9.2,4.1-9.2,9.2c0.4,12.2,17.9,12.2,18.4,0C199.1,160.6,195,156.5,189.9,156.5z"/>
		<path class="st2" d="M149.6,189.8c5.4,4.3,11.1,7.9,17.2,10.6c6,2.7,12.4,4.2,18.5,4.5c6.1,0.2,12.5-1,18-3.6
			c2.7-1.3,5.3-2.9,7.5-4.8c1.1-1,2.1-2,3.1-3.1c0.5-0.5,0.9-1.1,1.3-1.7c0.4-0.6,0.8-1.2,1.2-1.8c2.9-5,4.3-11.3,3.5-17.1
			c-0.4-2.9-1.2-5.7-2.7-8.2c-1.4-2.4-3.5-4.7-6.2-7.1c-2.7-2.4-5.8-4.8-8.9-7.9c-3-3-6-6.9-7.5-11.5c-1.5-4.5-1.6-9.2-0.7-13.5
			c1-4.4,3.1-8.4,6.1-11.6c1-1,2.6-1,3.5,0c0.9,0.8,1,2.2,0.4,3.1l-0.1,0.1c-0.9,1.4-1.6,3-2,4.6c-0.5,1.6-0.8,3.2-0.8,4.8
			c-0.1,3.2,0.6,6.5,2,9.1c1.4,2.6,3.5,4.8,6.2,6.8c2.7,2.1,5.9,4,9.3,6.3c1.7,1.2,3.4,2.4,5.1,4c1.7,1.5,3.3,3.3,4.8,5.3
			c2.9,3.9,4.8,8.4,5.9,13c1.1,4.6,1.3,9.4,0.8,14.1c-0.5,4.7-1.8,9.3-3.9,13.6c-0.6,1.1-1.1,2.1-1.7,3.2c-0.7,1-1.3,2.1-2,3
			c-1.4,1.9-3,3.8-4.6,5.4c-3.4,3.4-7.2,6.2-11.3,8.4c-8.2,4.4-17.3,6.6-26.6,6.6c-9.2,0-18.1-2.2-26.2-5.7
			c-8.1-3.5-15.4-8.3-21.8-13.9c-4.1-3.5-4.5-9.7-0.9-13.7C139.6,187.1,145.5,186.6,149.6,189.8L149.6,189.8z"/>
		<path class="st2" d="M168.5,194.5c-9.6-3.6-16.8-12-19-22c-1.1-5-0.9-10,0.4-14.8c0.6-2.4,1.6-4.7,2.8-6.8
			c1.2-2.2,2.7-4.2,4.2-5.8c3.1-3.3,6.2-5.6,8.8-7.6c2.7-2,4.6-3.6,6.5-5.9c3.7-4.5,6.3-10.3,7.3-16.9l0-0.1
			c0.2-1.4,1.5-2.4,2.9-2.2c1,0.1,1.8,0.8,2.1,1.7c2.4,7.4,1.8,16-1.6,23.6c-1.6,3.8-4.3,7.6-6.8,10.4c-2.5,2.9-4.7,5.3-6,7.4
			c-0.7,1.1-1.1,2-1.5,3c-0.3,1-0.6,2.1-0.7,3.1c-0.2,2.1-0.1,4.2,0.5,6.1c1.1,3.6,4.2,7,7.6,8.7l0.5,0.2c4.8,2.4,6.7,8.3,4.3,13.1
			C178.4,194.3,173.1,196.2,168.5,194.5z"/>
	</g>
</g>
</svg>
